<svg width="368" height="382" viewBox="0 0 368 382" fill="none" xmlns="http://www.w3.org/2000/svg">
<path d="M246.969 63.2743C245.593 76.1242 253.589 87.5124 257.759 91.6002C256.072 99 252.14 111.905 249.901 104.324C247.663 96.7436 234.791 80.9775 228.636 74.042C205.762 53.0219 192.408 77.5703 196.589 91.3849C199.934 102.436 227.357 116.336 240.65 121.904L215.628 154.14C216.561 157.299 217.368 161.262 213.133 151.847C207.839 140.078 182.212 101.186 163.766 118.754C149.01 132.809 154.813 147.696 161.467 153.811C176.584 167.702 190.161 172.671 198.43 172.855C190.865 183.035 175.764 202.194 175.881 197.392C176.027 191.389 167.339 174.967 150.288 159.298C136.647 146.762 119.564 145.986 116.466 153.53C109.024 195.018 153.973 208.71 157.716 212.15C160.711 214.901 138.633 230.411 127.221 237.822C127.629 234.873 125.807 225.17 115.25 209.945C102.055 190.915 82.614 190.58 72.7845 207.741C65.1693 221.036 90.2846 243.512 105.515 253.928L27.7303 305.182L45.6584 313.219L115.496 263.101C119.036 290.134 136.616 299.385 139.909 301.645C143.202 303.904 162.693 311.076 166.437 286.134C170.18 261.192 127.423 242.61 133.459 243.554C138.288 244.31 157.465 228.283 166.45 220.176C190.649 263.126 216.401 257.641 226.258 254.427C236.116 251.212 229.238 230.316 218.492 221.976C209.896 215.303 190.662 206.628 182.119 203.124L204.668 178.587C207.103 182.615 216.335 193.605 233.78 205.34C251.224 217.076 261.311 210.441 264.174 205.656C268.089 200.56 271.955 187.339 256.093 175.217C240.231 163.095 224.373 162.432 218.427 163.616L249.496 123.129C269.557 151.383 285.85 147.844 291.489 142.542C295.911 139.957 303.488 131.323 298.425 117.465C293.363 103.608 271.693 102.871 261.49 104.234L265.391 92.4772C272.281 94.7179 288.786 95.5667 299.685 81.0355C313.309 62.8716 304.385 40.8628 289.964 30.6786C278.427 22.5312 266.071 29.6887 261.335 34.2859C251.974 39.7979 247.857 55.9081 246.969 63.2743Z" fill="#61B379"/>
</svg>
