<svg width="569" height="462" viewBox="0 0 569 462" fill="none" xmlns="http://www.w3.org/2000/svg">
<path d="M477.531 156.525C500.732 172.072 512.99 224.231 516.947 246.482C515.047 251.138 519.592 269.285 492.977 310.562C471.685 343.584 411.47 349.721 384.024 348.662C395.555 328.384 397.996 271.814 397.065 271.434C396.32 271.13 390.816 284.091 388.157 290.609C372.413 320.681 341.128 340.213 327.454 346.22C304.075 356.668 269.739 356.346 255.493 354.879C271.738 317.19 268.081 289.413 264.222 280.236C260.46 284.132 241.331 323.033 233.942 338.483C228.03 350.843 218.711 353.631 214.79 353.479C168.622 353.761 108.162 315.772 83.7023 296.742C60.9426 282.243 30.8228 246.205 18.6078 229.998C23.8521 227.793 45.8468 206.715 56.1887 196.452C91.833 172.978 100.953 182.058 108.937 184.301C117.632 186.743 120.985 188.492 123.665 188.137C124.461 180.859 117.772 175.957 133.407 156.268C149.043 136.579 169.566 139.521 188.643 135.356C203.906 132.024 220.872 138.005 227.447 141.411C237.482 148.763 243.3 171.774 244.403 174.396C245.506 177.018 247.331 183.194 247.919 179.089C248.508 174.985 251.449 154.462 262.392 138.289C273.335 122.116 320.005 124.863 345.527 134.189C371.048 143.515 386.693 177.051 388.898 182.295C390.662 186.491 393.105 186.184 394.105 185.506C395.225 176.549 397.893 155.987 399.609 145.391C401.754 132.146 409.069 127.527 417.658 127.773C431.533 128.169 460.944 141.068 477.531 156.525Z" fill="#61B379"/>
<path d="M106.435 222.382C107.024 218.277 105.882 210.426 96.6092 211.856C85.0181 213.644 98.5317 231.105 106.435 222.382Z" fill="#F3DEE5"/>
<path d="M542.028 238.25C539.049 237.034 248.773 245.331 104.008 249.631C95.9206 252.415 106.454 256.06 112.731 257.535C125.216 261.542 518.772 252.658 533.916 250.147C549.061 247.636 545.753 239.769 542.028 238.25Z" fill="#F3DEE5"/>
<path d="M440.507 172.937C456.866 183.956 449.241 206.551 443.384 216.471C436.657 216.985 438.973 205.983 437.393 191.218C436.13 179.406 438.942 174.109 440.507 172.937Z" fill="#F3DEE5"/>
<path d="M434.298 315.95C429.769 322.792 427.306 318.89 426.641 316.084C424.644 307.667 434.692 285.698 437.523 281.422C440.354 277.146 442.596 276.975 446.872 279.805C451.148 282.636 439.96 307.398 434.298 315.95Z" fill="#F3DEE5"/>
<path d="M327.695 201.859C327.439 217.396 320.367 208.283 316.863 201.785C314.601 195.793 310.023 180.747 309.808 168.494C309.593 156.242 315.216 160.563 318.054 164.255C321.374 170.316 327.951 186.323 327.695 201.859Z" fill="#F3DEE5"/>
<path d="M192.683 200.001C195.878 213.47 188.01 209.681 183.677 206.103C182.746 205.723 178.636 200.353 169.649 181.915C160.661 163.477 171.287 169.912 177.724 175.434C181.379 178.011 189.488 186.533 192.683 200.001Z" fill="#F3DEE5"/>
<path d="M187.225 287.926C194.323 276.918 196.39 285.872 196.537 291.725C191.904 313.73 180.865 316.83 179.762 314.207C178.659 311.585 178.354 301.685 187.225 287.926Z" fill="#F3DEE5"/>
<path d="M314.565 319.239C308.076 328.756 306.895 321.179 307.116 316.2C308.158 300.333 320.412 283.609 324.308 287.37C328.204 291.132 322.677 307.342 314.565 319.239Z" fill="#F3DEE5"/>
</svg>
