<svg width="109" height="42" viewBox="0 0 109 42" fill="none" xmlns="http://www.w3.org/2000/svg">
<path d="M9.044 18.708H6.328V31H2.352V18.708H0.588V15.488H2.352V14.704C2.352 12.8 2.89333 11.4 3.976 10.504C5.05867 9.608 6.692 9.188 8.876 9.244V12.548C7.924 12.5293 7.26133 12.688 6.888 13.024C6.51467 13.36 6.328 13.9667 6.328 14.844V15.488H9.044V18.708ZM18.7523 31.252C17.259 31.252 15.915 30.9253 14.7203 30.272C13.5257 29.6 12.583 28.6573 11.8923 27.444C11.2203 26.2307 10.8843 24.8307 10.8843 23.244C10.8843 21.6573 11.2297 20.2573 11.9203 19.044C12.6297 17.8307 13.591 16.8973 14.8043 16.244C16.0177 15.572 17.371 15.236 18.8643 15.236C20.3577 15.236 21.711 15.572 22.9243 16.244C24.1377 16.8973 25.0897 17.8307 25.7803 19.044C26.4897 20.2573 26.8443 21.6573 26.8443 23.244C26.8443 24.8307 26.4803 26.2307 25.7523 27.444C25.043 28.6573 24.0723 29.6 22.8403 30.272C21.627 30.9253 20.2643 31.252 18.7523 31.252ZM18.7523 27.836C19.4617 27.836 20.1243 27.668 20.7403 27.332C21.375 26.9773 21.879 26.4547 22.2523 25.764C22.6257 25.0733 22.8123 24.2333 22.8123 23.244C22.8123 21.7693 22.4203 20.64 21.6363 19.856C20.871 19.0533 19.9283 18.652 18.8083 18.652C17.6883 18.652 16.7457 19.0533 15.9803 19.856C15.2337 20.64 14.8603 21.7693 14.8603 23.244C14.8603 24.7187 15.2243 25.8573 15.9523 26.66C16.699 27.444 17.6323 27.836 18.7523 27.836ZM36.8878 31.252C35.3945 31.252 34.0505 30.9253 32.8558 30.272C31.6611 29.6 30.7185 28.6573 30.0278 27.444C29.3558 26.2307 29.0198 24.8307 29.0198 23.244C29.0198 21.6573 29.3651 20.2573 30.0558 19.044C30.7651 17.8307 31.7265 16.8973 32.9398 16.244C34.1531 15.572 35.5065 15.236 36.9998 15.236C38.4931 15.236 39.8465 15.572 41.0598 16.244C42.2731 16.8973 43.2251 17.8307 43.9158 19.044C44.6251 20.2573 44.9798 21.6573 44.9798 23.244C44.9798 24.8307 44.6158 26.2307 43.8878 27.444C43.1785 28.6573 42.2078 29.6 40.9758 30.272C39.7625 30.9253 38.3998 31.252 36.8878 31.252ZM36.8878 27.836C37.5971 27.836 38.2598 27.668 38.8758 27.332C39.5105 26.9773 40.0145 26.4547 40.3878 25.764C40.7611 25.0733 40.9478 24.2333 40.9478 23.244C40.9478 21.7693 40.5558 20.64 39.7718 19.856C39.0065 19.0533 38.0638 18.652 36.9438 18.652C35.8238 18.652 34.8811 19.0533 34.1158 19.856C33.3691 20.64 32.9958 21.7693 32.9958 23.244C32.9958 24.7187 33.3598 25.8573 34.0878 26.66C34.8345 27.444 35.7678 27.836 36.8878 27.836ZM47.1273 23.188C47.1273 21.62 47.4353 20.2293 48.0513 19.016C48.6859 17.8027 49.5446 16.8693 50.6273 16.216C51.7099 15.5627 52.9139 15.236 54.2393 15.236C55.2473 15.236 56.2086 15.46 57.1233 15.908C58.0379 16.3373 58.7659 16.916 59.3073 17.644V10.28H63.2833V31H59.3073V28.704C58.8219 29.4693 58.1406 30.0853 57.2633 30.552C56.3859 31.0187 55.3686 31.252 54.2113 31.252C52.9046 31.252 51.7099 30.916 50.6273 30.244C49.5446 29.572 48.6859 28.6293 48.0513 27.416C47.4353 26.184 47.1273 24.7747 47.1273 23.188ZM59.3353 23.244C59.3353 22.292 59.1486 21.48 58.7753 20.808C58.4019 20.1173 57.8979 19.5947 57.2633 19.24C56.6286 18.8667 55.9473 18.68 55.2193 18.68C54.4913 18.68 53.8193 18.8573 53.2033 19.212C52.5873 19.5667 52.0833 20.0893 51.6913 20.78C51.3179 21.452 51.1313 22.2547 51.1313 23.188C51.1313 24.1213 51.3179 24.9427 51.6913 25.652C52.0833 26.3427 52.5873 26.8747 53.2033 27.248C53.8379 27.6213 54.5099 27.808 55.2193 27.808C55.9473 27.808 56.6286 27.6307 57.2633 27.276C57.8979 26.9027 58.4019 26.38 58.7753 25.708C59.1486 25.0173 59.3353 24.196 59.3353 23.244ZM69.3798 13.64C68.6892 13.64 68.1105 13.4253 67.6438 12.996C67.1958 12.548 66.9718 11.9973 66.9718 11.344C66.9718 10.6907 67.1958 10.1493 67.6438 9.72C68.1105 9.272 68.6892 9.048 69.3798 9.048C70.0705 9.048 70.6398 9.272 71.0878 9.72C71.5545 10.1493 71.7878 10.6907 71.7878 11.344C71.7878 11.9973 71.5545 12.548 71.0878 12.996C70.6398 13.4253 70.0705 13.64 69.3798 13.64ZM71.3118 15.488V31H67.3918V15.488H71.3118ZM89.8848 22.908C89.8848 23.468 89.8475 23.972 89.7728 24.42H78.4328C78.5261 25.54 78.9181 26.4173 79.6088 27.052C80.2995 27.6867 81.1488 28.004 82.1568 28.004C83.6128 28.004 84.6488 27.3787 85.2648 26.128H89.4928C89.0448 27.6213 88.1861 28.8533 86.9168 29.824C85.6475 30.776 84.0888 31.252 82.2408 31.252C80.7475 31.252 79.4035 30.9253 78.2088 30.272C77.0328 29.6 76.1088 28.6573 75.4368 27.444C74.7835 26.2307 74.4568 24.8307 74.4568 23.244C74.4568 21.6387 74.7835 20.2293 75.4368 19.016C76.0901 17.8027 77.0048 16.8693 78.1808 16.216C79.3568 15.5627 80.7101 15.236 82.2408 15.236C83.7155 15.236 85.0315 15.5533 86.1888 16.188C87.3648 16.8227 88.2701 17.728 88.9048 18.904C89.5581 20.0613 89.8848 21.396 89.8848 22.908ZM85.8248 21.788C85.8061 20.78 85.4421 19.9773 84.7328 19.38C84.0235 18.764 83.1555 18.456 82.1288 18.456C81.1581 18.456 80.3368 18.7547 79.6648 19.352C79.0115 19.9307 78.6101 20.7427 78.4608 21.788H85.8248ZM107.446 22.908C107.446 23.468 107.409 23.972 107.334 24.42H95.9941C96.0874 25.54 96.4794 26.4173 97.1701 27.052C97.8607 27.6867 98.7101 28.004 99.7181 28.004C101.174 28.004 102.21 27.3787 102.826 26.128H107.054C106.606 27.6213 105.747 28.8533 104.478 29.824C103.209 30.776 101.65 31.252 99.8021 31.252C98.3087 31.252 96.9647 30.9253 95.7701 30.272C94.5941 29.6 93.6701 28.6573 92.9981 27.444C92.3447 26.2307 92.0181 24.8307 92.0181 23.244C92.0181 21.6387 92.3447 20.2293 92.9981 19.016C93.6514 17.8027 94.5661 16.8693 95.7421 16.216C96.9181 15.5627 98.2714 15.236 99.8021 15.236C101.277 15.236 102.593 15.5533 103.75 16.188C104.926 16.8227 105.831 17.728 106.466 18.904C107.119 20.0613 107.446 21.396 107.446 22.908ZM103.386 21.788C103.367 20.78 103.003 19.9773 102.294 19.38C101.585 18.764 100.717 18.456 99.6901 18.456C98.7194 18.456 97.8981 18.7547 97.2261 19.352C96.5727 19.9307 96.1714 20.7427 96.0221 21.788H103.386Z" fill="#18181B"/>
<circle cx="69.5" cy="9.5" r="4.5" fill="url(#paint0_linear_206_197)"/>
<defs>
<linearGradient id="paint0_linear_206_197" x1="65" y1="10.1964" x2="74" y2="10.1964" gradientUnits="userSpaceOnUse">
<stop stop-color="#F87171"/>
<stop offset="1" stop-color="#F43F5E"/>
</linearGradient>
</defs>
</svg>
